HIERARCHY
ROOT Hips
{
	OFFSET	0.000000	0.000000	0.000000
	CHANNELS 6 Xposition Yposition Zposition Zrotation Xrotation Yrotation
	JOINT LeftHip
	{
		OFFSET	4.740440	-3.195970	-0.322709
		CHANNELS 3 Zrotation Xrotation Yrotation
		JOINT LeftKnee
		{
			OFFSET	-1.605680	-15.592300	1.005510
			CHANNELS 3 Zrotation Xrotation Yrotation
			JOINT LeftAnkle
			{
				OFFSET	-0.632401	-16.421000	-1.413730
				CHANNELS 3 Zrotation Xrotation Yrotation
				End Site
				{
					OFFSET	0.008423	-3.021750	-1.660875
				}
			}
		}
	}
	JOINT RightHip
	{
		OFFSET	-4.740440	-3.195970	-0.322709
		CHANNELS 3 Zrotation Xrotation Yrotation
		JOINT RightKnee
		{
			OFFSET	1.605680	-15.592300	1.005510
			CHANNELS 3 Zrotation Xrotation Yrotation
			JOINT RightAnkle
			{
				OFFSET	0.632401	-16.421000	-1.413730
				CHANNELS 3 Zrotation Xrotation Yrotation
				End Site
				{
					OFFSET	-0.008423	-3.021750	-1.660875
				}
			}
		}
	}
	JOINT Chest
	{
		OFFSET	0.000000	3.468200	0.078401
		CHANNELS 3 Zrotation Xrotation Yrotation
		JOINT LeftCollar
		{
			OFFSET	3.857650	15.070700	-0.011583
			CHANNELS 3 Zrotation Xrotation Yrotation
			JOINT LeftShoulder
			{
				OFFSET	3.979720	-1.940530	-0.165223
				CHANNELS 3 Zrotation Xrotation Yrotation
				JOINT LeftElbow
				{
					OFFSET	0.615844	-10.986600	-0.673886
					CHANNELS 3 Zrotation Xrotation Yrotation
					JOINT LeftWrist
					{
						OFFSET	0.826843	-10.854500	1.034220
						CHANNELS 3 Zrotation Xrotation Yrotation
						End Site
						{
							OFFSET	-1.679080	-8.456540	0.936217
						}
					}
				}
			}
		}
		JOINT RightCollar
		{
			OFFSET	-3.857650	15.070700	-0.011583
			CHANNELS 3 Zrotation Xrotation Yrotation
			JOINT RightShoulder
			{
				OFFSET	-3.979720	-1.940530	-0.165223
				CHANNELS 3 Zrotation Xrotation Yrotation
				JOINT RightElbow
				{
					OFFSET	-0.615845	-10.986600	-0.673886
					CHANNELS 3 Zrotation Xrotation Yrotation
					JOINT RightWrist
					{
						OFFSET	-0.826843	-10.854500	1.034220
						CHANNELS 3 Zrotation Xrotation Yrotation
						End Site
						{
							OFFSET	1.679080	-8.456540	0.936217
						}
					}
				}
			}
		}
		JOINT Neck
		{
			OFFSET	0.000000	15.101400	0.055730
			CHANNELS 3 Zrotation Xrotation Yrotation
			JOINT Head
			{
				OFFSET	0.000000	4.185120	1.488260
				CHANNELS 3 Zrotation Xrotation Yrotation
				End Site
				{
					OFFSET	0.000000	7.773420	-0.106016
				}
			}
		}
	}
}
MOTION
Frames:     14
Frame Time: 0.016667
0.034931	38.276443	0.313304	-0.442802	0.176363	0.654919	0.528618	0.529709	-1.688478	-0.087390	-0.598242	1.020711	0.018461	-0.115506	0.013328	-0.150056	0.956350	-1.316810	0.579686	-1.613420	0.651532	0.042796	0.489138	0.020713	2.146395	0.472998	0.273054	13.956821	-9.889538	0.726827	68.014168	0.528359	14.036227	6.293961	2.603965	12.530411	20.825480	4.226273	-37.974297	-15.735011	-12.073132	-2.252219	-68.672501	2.407498	-29.982943	-11.023242	4.841996	10.497115	-10.822263	2.342212	21.372211	1.284293	-2.750628	-1.291618	1.129670	6.045220	-3.706584	
0.036357	38.276375	0.314934	-0.442802	0.176363	0.654919	0.523432	0.535789	-1.688177	-0.082030	-0.604166	1.020451	0.018461	-0.115506	0.013328	-0.154212	0.995833	-1.304826	0.584416	-1.652915	0.640015	0.042796	0.489138	0.020713	2.160637	0.465218	0.273772	13.962882	-9.900027	0.697328	67.994019	0.563272	14.030751	6.292378	2.607209	12.496836	20.810913	4.219884	-37.922096	-15.737171	-12.055657	-2.268719	-68.665077	2.370603	-29.986799	-11.046475	4.844904	10.498735	-10.825515	2.338571	21.349171	1.304583	-2.846663	-1.267036	1.082297	6.080708	-3.724869	
0.041232	38.275879	0.323351	-0.442802	0.176363	0.654919	0.506605	0.555492	-1.687250	-0.065951	-0.612572	1.016729	0.019587	-0.126315	0.016246	-0.155781	1.019294	-1.297892	0.586323	-1.676405	0.633346	0.042796	0.489138	0.020713	2.189315	0.449553	0.275226	14.002346	-9.945533	0.600595	67.926918	0.681795	14.012705	6.279137	2.628312	12.218243	20.793921	4.275918	-37.784603	-15.704147	-12.008289	-2.317942	-68.720627	2.296016	-29.995285	-11.045227	4.841993	10.454407	-10.842985	2.331302	21.330854	1.342963	-3.044668	-1.230236	1.002517	6.000493	-3.710128	
0.041547	38.273609	0.325203	-0.417886	0.171715	0.633056	0.475333	0.567870	-1.665147	-0.060383	-0.612859	1.014593	0.020307	-0.133123	0.018074	-0.182008	1.043803	-1.270363	0.587570	-1.696082	0.627840	0.042796	0.489138	0.020713	2.177788	0.449171	0.286817	14.016734	-9.958652	0.578748	67.899597	0.723063	13.987931	6.271500	2.608602	12.101871	20.746717	4.304000	-37.737259	-15.694989	-11.991133	-2.331231	-68.739731	2.263727	-29.998440	-11.026837	4.840362	10.454810	-10.858051	2.317841	21.303957	1.335976	-3.086677	-1.229738	0.988136	5.950332	-3.727768	
0.047633	38.272358	0.338794	-0.414114	0.171117	0.629385	0.450682	0.592925	-1.660335	-0.041971	-0.611174	1.006696	0.022997	-0.158625	0.024975	-0.179024	1.055647	-1.269876	0.581100	-1.707416	0.631006	0.042796	0.489138	0.020713	2.199579	0.440743	0.250425	13.999414	-9.941441	0.613634	67.879967	0.743510	13.917941	6.261019	2.530286	11.845671	20.317833	4.437793	-37.487892	-15.667363	-11.956056	-2.357919	-68.775742	2.172544	-29.853132	-11.002266	4.870208	10.304361	-10.854168	2.258433	21.277306	1.323878	-3.168829	-1.207571	0.797269	5.724393	-3.771582	
0.049778	38.271992	0.343950	-0.414114	0.171117	0.629385	0.443741	0.601052	-1.659938	-0.036050	-0.608840	1.003565	0.024076	-0.168899	0.027770	-0.177572	1.064305	-1.283669	0.580256	-1.715963	0.644866	0.042796	0.489138	0.020713	2.200997	0.441720	0.235344	13.997946	-9.924423	0.617418	67.864372	0.768198	13.913915	6.267413	2.485657	11.800230	20.079380	4.483784	-37.378757	-15.665767	-11.961059	-2.343354	-68.773460	2.170659	-29.789068	-10.999822	4.882938	10.241260	-10.873234	2.250059	21.180168	1.309002	-3.193331	-1.187721	0.704715	5.607678	-3.772344	
0.056825	38.270721	0.360421	-0.414114	0.171117	0.629385	0.421295	0.624508	-1.663360	-0.017153	-0.596976	0.997768	0.027754	-0.203626	0.037186	-0.179523	1.067075	-1.293863	0.582624	-1.713241	0.655207	0.042686	0.483799	0.020635	2.205000	0.444473	0.192748	13.994831	-9.882004	0.632562	67.815880	0.839231	13.876176	6.297048	2.429288	11.794996	19.236227	4.516509	-36.975163	-15.605219	-11.928754	-2.334246	-68.800735	2.142527	-29.729170	-11.031394	5.040682	9.943221	-10.991918	2.054305	20.904139	1.244970	-3.197867	-1.111757	0.368365	5.214995	-3.801019	
0.058828	38.270340	0.366879	-0.414114	0.171117	0.629385	0.415610	0.633980	-1.671289	-0.012657	-0.593624	1.002299	0.029093	-0.216307	0.040636	-0.183895	1.073240	-1.316501	0.587933	-1.706124	0.678205	0.042420	0.470850	0.020444	2.206142	0.445254	0.180559	13.989731	-9.847175	0.618986	67.816513	0.853420	13.886486	6.299160	2.427956	11.824724	18.973537	4.515558	-36.888733	-15.593499	-11.924170	-2.338267	-68.783287	2.164517	-29.731920	-11.042892	5.087406	9.868926	-11.013621	2.030125	20.816080	1.219260	-3.201976	-1.086421	0.265585	5.065260	-3.815549	
0.063564	38.268990	0.381192	-0.414114	0.171117	0.629385	0.403602	0.640887	-1.701503	-0.005073	-0.560147	1.021740	0.033355	-0.256415	0.051515	-0.188963	1.080376	-1.342708	0.595028	-1.698947	0.700637	0.041141	0.456945	0.024438	2.225005	0.479925	0.182732	13.965631	-9.847780	0.598715	67.814270	0.868637	13.840174	6.296017	2.444018	11.790202	18.536961	4.578952	-36.722412	-15.613410	-11.955707	-2.352193	-68.718208	2.263812	-29.688662	-11.089854	5.261576	9.771788	-10.896701	1.970466	20.676428	1.053419	-3.271364	-0.988135	0.011593	4.612226	-3.872082	
0.064926	38.268478	0.384917	-0.414114	0.171117	0.629385	0.400392	0.638560	-1.711385	-0.003571	-0.543634	1.027825	0.034853	-0.270534	0.055342	-0.191171	1.083437	-1.353983	0.600280	-1.686641	0.701497	0.038236	0.441791	0.035019	2.243315	0.513802	0.186484	13.941569	-9.846802	0.575726	67.816795	0.881509	13.849147	6.294941	2.449840	11.780313	18.481333	4.625097	-36.723797	-15.634558	-11.987222	-2.365356	-68.628387	2.411695	-29.682999	-11.079876	5.280877	9.716018	-10.792896	1.956549	20.695929	0.970695	-3.320672	-0.949870	-0.058261	4.459799	-3.883850	
0.068752	38.266983	0.396084	-0.414114	0.171117	0.629385	0.391530	0.632142	-1.738624	0.000171	-0.494996	1.043718	0.039324	-0.312568	0.066765	-0.197188	1.091856	-1.384992	0.610278	-1.678749	0.721286	0.035086	0.425999	0.046551	2.273623	0.569999	0.192681	13.905219	-9.864153	0.552542	67.815453	0.898180	13.808059	6.276492	2.465889	11.760755	18.461519	4.648650	-36.757542	-15.669600	-12.039488	-2.387213	-68.510597	2.533561	-29.686741	-11.080854	5.312643	9.668392	-10.696795	1.887128	20.765526	0.750769	-3.423126	-0.834161	-0.249583	4.050941	-3.914851	
0.069196	38.266598	0.399958	-0.414114	0.171117	0.629385	0.391114	0.631842	-1.739809	-0.001081	-0.481159	1.041221	0.040763	-0.326117	0.070447	-0.197548	1.092227	-1.386340	0.612078	-1.671284	0.717111	0.033556	0.418207	0.052128	2.302255	0.623101	0.198511	13.873724	-9.896003	0.542797	67.800865	0.893124	13.808904	6.273711	2.480004	11.757732	18.473200	4.649179	-36.768066	-15.702737	-12.088861	-2.407898	-68.385902	2.676419	-29.690256	-11.048892	5.334817	9.613461	-10.642153	1.761003	20.755884	0.617313	-3.599982	-0.783784	-0.267206	4.039147	-3.941251	
0.072014	38.265266	0.410818	-0.414114	0.171117	0.629385	0.385197	0.627568	-1.758047	-0.000036	-0.436976	1.048692	0.044991	-0.365923	0.081271	-0.197548	1.092227	-1.386340	0.614911	-1.648949	0.706301	0.030370	0.395914	0.063033	2.331678	0.677715	0.204474	13.834213	-9.889762	0.501979	67.787399	0.896482	13.858552	6.230447	2.564151	11.790185	18.495234	4.546333	-36.787544	-15.710617	-12.078671	-2.454015	-68.240837	2.717584	-29.744717	-11.063140	5.359035	9.608651	-10.578080	1.706687	20.770016	0.490617	-3.754753	-0.735056	-0.468783	3.713150	-3.998060	
0.073249	38.264816	0.413995	-0.414114	0.171117	0.629385	0.382226	0.625420	-1.767144	0.001445	-0.422626	1.054524	0.046280	-0.378057	0.084567	-0.197548	1.092227	-1.386340	0.614967	-1.641962	0.706419	0.030229	0.388929	0.062920	2.343367	0.699397	0.206838	13.819730	-9.893878	0.490966	67.773537	0.888349	13.880767	6.229232	2.596204	11.792640	18.478315	4.545161	-36.774696	-15.716100	-12.070260	-2.466244	-68.166473	2.740798	-29.773506	-11.056278	5.343592	9.638330	-10.547692	1.711944	20.788391	0.440917	-3.790128	-0.715562	-0.520753	3.592113	-3.974555	
